<svg width="383" height="656" viewBox="0 0 383 656" fill="none" xmlns="http://www.w3.org/2000/svg">
<ellipse cx="189" cy="183.5" rx="189" ry="183.5" fill="#3187FF"/>
<rect x="244.926" y="575.366" width="102.804" height="128.972" transform="rotate(129.033 244.926 575.366)" fill="#FFF16F"/>
<path d="M301.925 541.721L242 616L144.999 536.794L204.828 463L301.925 541.721Z" fill="#FFBC6D"/>
<path d="M177.998 573.001L21.5004 268.001L2.97928 192.155L376 197.5L356.5 268.001L177.998 573.001Z" fill="#3187FF"/>
<path d="M326 191C326 274.395 261.977 342 183 342C104.023 342 40 274.395 40 191C40 107.605 104.023 40 183 40C261.977 40 326 107.605 326 191Z" fill="#8DA9C4"/>
<path d="M317 238.134C317 284.413 246.13 342 180.255 342C114.38 342 49 284.413 49 238.134C49 191.855 123.862 193.003 189.737 193.003C255.613 193.003 317 191.855 317 238.134Z" fill="#011627"/>
<path d="M336 221.5C336 252.152 310.033 277 278 277C245.967 277 220 252.152 220 221.5C220 190.848 245.967 166 278 166C310.033 166 336 190.848 336 221.5Z" fill="#0E3758"/>
<path d="M336 221.5C336 252.152 310.033 277 278 277C245.967 277 220 252.152 220 221.5C220 190.848 245.967 166 278 166C310.033 166 336 190.848 336 221.5Z" stroke="white"/>
<path d="M141 219.5C141 251.256 115.928 277 85 277C54.0721 277 29 251.256 29 219.5C29 187.744 54.0721 162 85 162C115.928 162 141 187.744 141 219.5Z" fill="#0E3758"/>
<path d="M141 219.5C141 251.256 115.928 277 85 277C54.0721 277 29 251.256 29 219.5C29 187.744 54.0721 162 85 162C115.928 162 141 187.744 141 219.5Z" stroke="white"/>
<path d="M211 242.474L208.5 254.914L195.5 305.172L187 341H181.5H174L165.5 340.502L158 339.507L147 305.172L135 252.923L136 245.459L138.5 239.986L145 242.474L160 246.455L175 247.947L185 246.455L192 243.967L197.5 242.474L202 240.981L208.5 237L211 242.474Z" fill="#0E3758"/>
<path d="M243 186C243 223.003 212.108 253 174 253C135.892 253 105 223.003 105 186C105 148.997 135.892 119 174 119C212.108 119 243 148.997 243 186Z" fill="white"/>
<path d="M243 186C243 223.003 212.108 253 174 253C135.892 253 105 223.003 105 186C105 148.997 135.892 119 174 119C212.108 119 243 148.997 243 186Z" stroke="white"/>
</svg>
