<svg width="749" height="152" viewBox="0 0 749 152" fill="none" xmlns="http://www.w3.org/2000/svg">
<path d="M72.2695 7.8125V150H43.0703V7.8125H72.2695ZM116.02 7.8125V30.7617H0.00390625V7.8125H116.02ZM212.016 66.2109V150H183.793V44.3359H210.258L212.016 66.2109ZM208.109 93.457H200.297C200.297 86.1003 201.176 79.3294 202.934 73.1445C204.757 66.8945 207.393 61.4909 210.844 56.9336C214.359 52.3112 218.689 48.7305 223.832 46.1914C228.975 43.6523 234.932 42.3828 241.703 42.3828C246.391 42.3828 250.688 43.099 254.594 44.5312C258.5 45.8984 261.853 48.0794 264.652 51.0742C267.517 54.0039 269.73 57.8451 271.293 62.5977C272.855 67.2852 273.637 72.9167 273.637 79.4922V150H245.512V82.6172C245.512 77.7995 244.861 74.0885 243.559 71.4844C242.257 68.8802 240.401 67.0573 237.992 66.0156C235.648 64.974 232.816 64.4531 229.496 64.4531C225.85 64.4531 222.66 65.2018 219.926 66.6992C217.257 68.1966 215.043 70.2799 213.285 72.9492C211.527 75.5534 210.225 78.6133 209.379 82.1289C208.533 85.6445 208.109 89.4206 208.109 93.457ZM271 90.2344L260.941 91.5039C260.941 84.6029 261.788 78.1901 263.48 72.2656C265.238 66.3411 267.81 61.1328 271.195 56.6406C274.646 52.1484 278.91 48.6654 283.988 46.1914C289.066 43.6523 294.926 42.3828 301.566 42.3828C306.645 42.3828 311.267 43.1315 315.434 44.6289C319.6 46.0612 323.148 48.3724 326.078 51.5625C329.073 54.6875 331.352 58.7891 332.914 63.8672C334.542 68.9453 335.355 75.1628 335.355 82.5195V150H307.133V82.5195C307.133 77.6367 306.482 73.9258 305.18 71.3867C303.943 68.7826 302.12 66.9922 299.711 66.0156C297.367 64.974 294.568 64.4531 291.312 64.4531C287.927 64.4531 284.965 65.1367 282.426 66.5039C279.887 67.806 277.771 69.6289 276.078 71.9727C274.385 74.3164 273.116 77.0508 272.27 80.1758C271.423 83.2357 271 86.5885 271 90.2344Z" fill="#011627"/>
<path d="M160.648 44.3359V150H132.426V44.3359H160.648ZM130.668 16.7969C130.668 12.6953 132.1 9.3099 134.965 6.64062C137.829 3.97135 141.671 2.63672 146.488 2.63672C151.241 2.63672 155.049 3.97135 157.914 6.64062C160.844 9.3099 162.309 12.6953 162.309 16.7969C162.309 20.8984 160.844 24.2839 157.914 26.9531C155.049 29.6224 151.241 30.957 146.488 30.957C141.671 30.957 137.829 29.6224 134.965 26.9531C132.1 24.2839 130.668 20.8984 130.668 16.7969Z" fill="white"/>
<path d="M416.703 32.1289L378.031 150H346.879L399.711 7.8125H419.535L416.703 32.1289ZM448.832 150L410.062 32.1289L406.938 7.8125H426.957L480.082 150H448.832ZM447.074 97.0703V120.02H371.977V97.0703H447.074ZM491.508 0H519.633V125.781L516.801 150H491.508V0ZM586.527 96.0938V98.1445C586.527 106.022 585.681 113.249 583.988 119.824C582.361 126.4 579.822 132.096 576.371 136.914C572.921 141.667 568.624 145.378 563.48 148.047C558.402 150.651 552.413 151.953 545.512 151.953C539.066 151.953 533.467 150.651 528.715 148.047C524.027 145.443 520.089 141.764 516.898 137.012C513.708 132.259 511.137 126.693 509.184 120.312C507.23 113.932 505.766 106.966 504.789 99.4141V94.9219C505.766 87.3698 507.23 80.4036 509.184 74.0234C511.137 67.6432 513.708 62.0768 516.898 57.3242C520.089 52.5716 524.027 48.8932 528.715 46.2891C533.402 43.6849 538.936 42.3828 545.316 42.3828C552.283 42.3828 558.337 43.7174 563.48 46.3867C568.689 48.9909 572.986 52.7018 576.371 57.5195C579.822 62.2721 582.361 67.9362 583.988 74.5117C585.681 81.0221 586.527 88.2161 586.527 96.0938ZM558.402 98.1445V96.0938C558.402 91.7969 558.077 87.7604 557.426 83.9844C556.84 80.1432 555.798 76.7904 554.301 73.9258C552.803 70.9961 550.753 68.6849 548.148 66.9922C545.609 65.2995 542.322 64.4531 538.285 64.4531C534.444 64.4531 531.189 65.1042 528.52 66.4062C525.85 67.7083 523.637 69.5312 521.879 71.875C520.186 74.2188 518.917 77.0182 518.07 80.2734C517.224 83.4635 516.703 86.9792 516.508 90.8203V103.613C516.703 108.757 517.549 113.314 519.047 117.285C520.609 121.191 522.953 124.284 526.078 126.562C529.268 128.776 533.402 129.883 538.48 129.883C542.452 129.883 545.74 129.102 548.344 127.539C550.948 125.977 552.966 123.763 554.398 120.898C555.896 118.034 556.938 114.681 557.523 110.84C558.109 106.934 558.402 102.702 558.402 98.1445ZM633.695 0V150H605.473V0H633.695ZM705.57 151.953C697.367 151.953 690.01 150.651 683.5 148.047C676.99 145.378 671.456 141.699 666.898 137.012C662.406 132.324 658.956 126.888 656.547 120.703C654.138 114.453 652.934 107.812 652.934 100.781V96.875C652.934 88.8672 654.073 81.543 656.352 74.9023C658.63 68.2617 661.885 62.5 666.117 57.6172C670.414 52.7344 675.622 48.9909 681.742 46.3867C687.862 43.7174 694.763 42.3828 702.445 42.3828C709.932 42.3828 716.573 43.6198 722.367 46.0938C728.161 48.5677 733.012 52.0833 736.918 56.6406C740.889 61.1979 743.884 66.6667 745.902 73.0469C747.921 79.362 748.93 86.3932 748.93 94.1406V105.859H664.945V87.1094H721.293V84.9609C721.293 81.0547 720.577 77.5716 719.145 74.5117C717.777 71.3867 715.694 68.9128 712.895 67.0898C710.095 65.2669 706.514 64.3555 702.152 64.3555C698.441 64.3555 695.251 65.1693 692.582 66.7969C689.913 68.4245 687.732 70.7031 686.039 73.6328C684.411 76.5625 683.174 80.013 682.328 83.9844C681.547 87.8906 681.156 92.1875 681.156 96.875V100.781C681.156 105.013 681.742 108.919 682.914 112.5C684.151 116.081 685.876 119.173 688.09 121.777C690.368 124.382 693.103 126.4 696.293 127.832C699.548 129.264 703.227 129.98 707.328 129.98C712.406 129.98 717.126 129.004 721.488 127.051C725.915 125.033 729.724 122.005 732.914 117.969L746.586 132.812C744.372 136.003 741.345 139.062 737.504 141.992C733.728 144.922 729.171 147.331 723.832 149.219C718.493 151.042 712.406 151.953 705.57 151.953Z" fill="#3187FF"/>
</svg>
